<svg xmlns="http://www.w3.org/2000/svg" width="1280" height="720" viewBox="0 0 1280 720" font-family="'Segoe UI', system-ui, -apple-system, Helvetica, Arial, sans-serif"><defs><linearGradient id="bg" x1="0" y1="0" x2="0" y2="1"><stop offset="0" stop-color="#0a0e16"/><stop offset="1" stop-color="#0d1117"/></linearGradient><linearGradient id="accent" x1="0" y1="0" x2="1" y2="0"><stop offset="0" stop-color="#2dd4bf"/><stop offset="0.5" stop-color="#4493f8"/><stop offset="1" stop-color="#2dd4bf"/></linearGradient><pattern id="grid" width="32" height="32" patternUnits="userSpaceOnUse"><path d="M 32 0 L 0 0 0 32" fill="none" stroke="#161d27" stroke-width="1"/></pattern><filter id="soft" x="-20%" y="-20%" width="140%" height="140%"><feDropShadow dx="0" dy="4" stdDeviation="8" flood-color="#000000" flood-opacity="0.45"/></filter><filter id="glow" x="-60%" y="-60%" width="220%" height="220%"><feDropShadow dx="0" dy="0" stdDeviation="6" flood-color="#2dd4bf" flood-opacity="0.5"/></filter></defs><rect x="0" y="0" width="1280" height="720" fill="url(#bg)"/><rect x="0" y="0" width="1280" height="720" fill="url(#grid)" opacity="0.5"/><rect x="0" y="0" width="1280" height="4" fill="url(#accent)"/><text x="1252" y="698" font-size="12.5" fill="#69788b" font-family="'SF Mono','JetBrains Mono','Fira Code',Menlo,Consolas,'Liberation Mono',monospace" font-weight="400" text-anchor="end">github.com/TAIPANBOX/tokenfuse</text><text x="40" y="56" font-size="28" fill="#e6edf3" font-family="'Segoe UI', system-ui, -apple-system, Helvetica, Arial, sans-serif" font-weight="700" text-anchor="start">Architecture</text><text x="40" y="84" font-size="15" fill="#9aa7b8" font-family="'Segoe UI', system-ui, -apple-system, Helvetica, Arial, sans-serif" font-weight="400" text-anchor="start">One Rust workspace: a hot-path gateway, a dependency-minimal core, an optional HA cluster and hosted Cloud.</text><line x1="40" y1="100" x2="1240" y2="100" stroke="#222b38" stroke-width="1"/><text x="42" y="138" font-size="12" fill="#4493f8" font-family="'SF Mono','JetBrains Mono','Fira Code',Menlo,Consolas,'Liberation Mono',monospace" font-weight="700" text-anchor="start" letter-spacing="1.5">01 · CLIENTS</text><rect x="40" y="150" width="190" height="520" rx="14" ry="14" fill="#141a23" stroke="#283341" stroke-width="1" filter="url(#soft)"/><text x="256" y="138" font-size="12" fill="#2dd4bf" font-family="'SF Mono','JetBrains Mono','Fira Code',Menlo,Consolas,'Liberation Mono',monospace" font-weight="700" text-anchor="start" letter-spacing="1.5">02 · GATEWAY · hot path</text><rect x="254" y="150" width="380" height="520" rx="14" ry="14" fill="#141a23" stroke="#283341" stroke-width="1" filter="url(#soft)"/><text x="660" y="138" font-size="12" fill="#2dd4bf" font-family="'SF Mono','JetBrains Mono','Fira Code',Menlo,Consolas,'Liberation Mono',monospace" font-weight="700" text-anchor="start" letter-spacing="1.5">03 · CORE + CLUSTER</text><rect x="658" y="150" width="290" height="520" rx="14" ry="14" fill="#141a23" stroke="#283341" stroke-width="1" filter="url(#soft)"/><text x="974" y="138" font-size="12" fill="#4493f8" font-family="'SF Mono','JetBrains Mono','Fira Code',Menlo,Consolas,'Liberation Mono',monospace" font-weight="700" text-anchor="start" letter-spacing="1.5">04 · UPSTREAM + CONTROL PLANE</text><rect x="972" y="150" width="268" height="520" rx="14" ry="14" fill="#141a23" stroke="#283341" stroke-width="1" filter="url(#soft)"/><rect x="56" y="200" width="158" height="100" rx="12" ry="12" fill="#1b2331" stroke="#222b38" stroke-width="1" filter="url(#soft)"/><rect x="56" y="200" width="6" height="100" rx="3" ry="3" fill="#4493f8" stroke="#283341" stroke-width="1"/><text x="78" y="228" font-size="16" fill="#e6edf3" font-family="'Segoe UI', system-ui, -apple-system, Helvetica, Arial, sans-serif" font-weight="700" text-anchor="start">AI agents</text><line x1="78" y1="244" x2="200" y2="244" stroke="#222b38" stroke-width="1"/><text x="78" y="266" font-size="12.5" fill="#e6edf3" font-family="'SF Mono','JetBrains Mono','Fira Code',Menlo,Consolas,'Liberation Mono',monospace" font-weight="600" text-anchor="start">any framework</text><text x="78" y="288" font-size="11.5" fill="#9aa7b8" font-family="'Segoe UI', system-ui, -apple-system, Helvetica, Arial, sans-serif" font-weight="500" text-anchor="start">base-URL swap, no SDK</text><rect x="56" y="320" width="158" height="100" rx="12" ry="12" fill="#1b2331" stroke="#222b38" stroke-width="1" filter="url(#soft)"/><rect x="56" y="320" width="6" height="100" rx="3" ry="3" fill="#4493f8" stroke="#283341" stroke-width="1"/><text x="78" y="348" font-size="16" fill="#e6edf3" font-family="'Segoe UI', system-ui, -apple-system, Helvetica, Arial, sans-serif" font-weight="700" text-anchor="start">tokenfuse CLI</text><line x1="78" y1="364" x2="200" y2="364" stroke="#222b38" stroke-width="1"/><text x="78" y="386" font-size="12.5" fill="#e6edf3" font-family="'SF Mono','JetBrains Mono','Fira Code',Menlo,Consolas,'Liberation Mono',monospace" font-weight="600" text-anchor="start">crates/tokenfuse</text><text x="78" y="408" font-size="11.5" fill="#9aa7b8" font-family="'Segoe UI', system-ui, -apple-system, Helvetica, Arial, sans-serif" font-weight="500" text-anchor="start">binary + Docker image</text><rect x="56" y="440" width="158" height="100" rx="12" ry="12" fill="#1b2331" stroke="#222b38" stroke-width="1" filter="url(#soft)"/><rect x="56" y="440" width="6" height="100" rx="3" ry="3" fill="#4493f8" stroke="#283341" stroke-width="1"/><text x="78" y="468" font-size="16" fill="#e6edf3" font-family="'Segoe UI', system-ui, -apple-system, Helvetica, Arial, sans-serif" font-weight="700" text-anchor="start">SDKs</text><line x1="78" y1="484" x2="200" y2="484" stroke="#222b38" stroke-width="1"/><text x="78" y="506" font-size="12.5" fill="#e6edf3" font-family="'SF Mono','JetBrains Mono','Fira Code',Menlo,Consolas,'Liberation Mono',monospace" font-weight="600" text-anchor="start">Python (PyPI) · JS (npm)</text><text x="78" y="528" font-size="11.5" fill="#9aa7b8" font-family="'Segoe UI', system-ui, -apple-system, Helvetica, Arial, sans-serif" font-weight="500" text-anchor="start">sdk/python · sdk/js</text><rect x="270" y="180" width="348" height="92" rx="14" ry="14" fill="#1a212c" stroke="#2dd4bf" stroke-width="1.6" filter="url(#glow)"/><text x="444.0" y="210" font-size="18" fill="#2dd4bf" font-family="'SF Mono','JetBrains Mono','Fira Code',Menlo,Consolas,'Liberation Mono',monospace" font-weight="700" text-anchor="middle">tokenfuse-gateway</text><text x="444.0" y="230" font-size="12.5" fill="#e6edf3" font-family="'Segoe UI', system-ui, -apple-system, Helvetica, Arial, sans-serif" font-weight="600" text-anchor="middle">the proxy: single Rust binary, hot path</text><text x="444.0" y="248" font-size="10.5" fill="#69788b" font-family="'SF Mono','JetBrains Mono','Fira Code',Menlo,Consolas,'Liberation Mono',monospace" font-weight="400" text-anchor="middle">proxy · estimate · router · firewall · wardryx</text><rect x="270" y="302" width="348" height="108" rx="12" ry="12" fill="#1b2331" stroke="#222b38" stroke-width="1" filter="url(#soft)"/><rect x="270" y="302" width="6" height="108" rx="3" ry="3" fill="#2dd4bf" stroke="#283341" stroke-width="1"/><text x="292" y="330" font-size="16" fill="#e6edf3" font-family="'Segoe UI', system-ui, -apple-system, Helvetica, Arial, sans-serif" font-weight="700" text-anchor="start">Ledger + sink</text><line x1="292" y1="346" x2="604" y2="346" stroke="#222b38" stroke-width="1"/><text x="292" y="368" font-size="12.5" fill="#e6edf3" font-family="'SF Mono','JetBrains Mono','Fira Code',Menlo,Consolas,'Liberation Mono',monospace" font-weight="600" text-anchor="start">Parquet trace · OTel export</text><text x="292" y="390" font-size="11.5" fill="#9aa7b8" font-family="'Segoe UI', system-ui, -apple-system, Helvetica, Arial, sans-serif" font-weight="500" text-anchor="start">agent-event NDJSON (opt-in) · tokenfuse sql</text><rect x="270" y="440" width="348" height="108" rx="12" ry="12" fill="#1b2331" stroke="#222b38" stroke-width="1" filter="url(#soft)"/><rect x="270" y="440" width="6" height="108" rx="3" ry="3" fill="#2dd4bf" stroke="#283341" stroke-width="1"/><text x="292" y="468" font-size="16" fill="#e6edf3" font-family="'Segoe UI', system-ui, -apple-system, Helvetica, Arial, sans-serif" font-weight="700" text-anchor="start">Capability packs</text><line x1="292" y1="484" x2="604" y2="484" stroke="#222b38" stroke-width="1"/><text x="292" y="506" font-size="12.5" fill="#e6edf3" font-family="'SF Mono','JetBrains Mono','Fira Code',Menlo,Consolas,'Liberation Mono',monospace" font-weight="600" text-anchor="start">FinOps · Cache · Security · Data</text><text x="292" y="528" font-size="11.5" fill="#9aa7b8" font-family="'Segoe UI', system-ui, -apple-system, Helvetica, Arial, sans-serif" font-weight="500" text-anchor="start">config-gated: see What's inside</text><rect x="674" y="200" width="258" height="168" rx="12" ry="12" fill="#1b2331" stroke="#222b38" stroke-width="1" filter="url(#soft)"/><rect x="674" y="200" width="6" height="168" rx="3" ry="3" fill="#2dd4bf" stroke="#283341" stroke-width="1"/><text x="696" y="230" font-size="16" fill="#e6edf3" font-family="'Segoe UI', system-ui, -apple-system, Helvetica, Arial, sans-serif" font-weight="700" text-anchor="start">tokenfuse-core</text><line x1="696" y1="244" x2="918" y2="244" stroke="#222b38" stroke-width="1"/><circle cx="699" cy="266" r="2.6" fill="#2dd4bf"/><text x="712" y="270" font-size="12.5" fill="#9aa7b8" font-family="'Segoe UI', system-ui, -apple-system, Helvetica, Arial, sans-serif" font-weight="500" text-anchor="start">money · ledger · policy · taint</text><circle cx="699" cy="291" r="2.6" fill="#2dd4bf"/><text x="712" y="295" font-size="12.5" fill="#9aa7b8" font-family="'Segoe UI', system-ui, -apple-system, Helvetica, Arial, sans-serif" font-weight="500" text-anchor="start">deps: thiserror, serde, regex, sha2</text><circle cx="699" cy="316" r="2.6" fill="#2dd4bf"/><text x="712" y="320" font-size="12.5" fill="#9aa7b8" font-family="'Segoe UI', system-ui, -apple-system, Helvetica, Arial, sans-serif" font-weight="500" text-anchor="start">no web / utoipa / p256 in here</text><rect x="674" y="400" width="258" height="168" rx="12" ry="12" fill="#1b2331" stroke="#222b38" stroke-width="1" filter="url(#soft)"/><rect x="674" y="400" width="6" height="168" rx="3" ry="3" fill="#3fb950" stroke="#283341" stroke-width="1"/><text x="696" y="430" font-size="16" fill="#e6edf3" font-family="'Segoe UI', system-ui, -apple-system, Helvetica, Arial, sans-serif" font-weight="700" text-anchor="start">tokenfuse-cluster</text><line x1="696" y1="444" x2="918" y2="444" stroke="#222b38" stroke-width="1"/><circle cx="699" cy="466" r="2.6" fill="#3fb950"/><text x="712" y="470" font-size="12.5" fill="#9aa7b8" font-family="'Segoe UI', system-ui, -apple-system, Helvetica, Arial, sans-serif" font-weight="500" text-anchor="start">raft-replicated budget ledger</text><circle cx="699" cy="491" r="2.6" fill="#3fb950"/><text x="712" y="495" font-size="12.5" fill="#9aa7b8" font-family="'Segoe UI', system-ui, -apple-system, Helvetica, Arial, sans-serif" font-weight="500" text-anchor="start">redb durable storage</text><circle cx="699" cy="516" r="2.6" fill="#3fb950"/><text x="712" y="520" font-size="12.5" fill="#9aa7b8" font-family="'Segoe UI', system-ui, -apple-system, Helvetica, Arial, sans-serif" font-weight="500" text-anchor="start">linearized across the fleet</text><circle cx="699" cy="541" r="2.6" fill="#3fb950"/><text x="712" y="545" font-size="12.5" fill="#9aa7b8" font-family="'Segoe UI', system-ui, -apple-system, Helvetica, Arial, sans-serif" font-weight="500" text-anchor="start">no cross-node double-spend</text><text x="803" y="592" font-size="10.5" fill="#69788b" font-family="'SF Mono','JetBrains Mono','Fira Code',Menlo,Consolas,'Liberation Mono',monospace" font-weight="400" text-anchor="middle">optional: HA mode</text><rect x="988" y="180" width="238" height="92" rx="12" ry="12" fill="#1b2331" stroke="#222b38" stroke-width="1" filter="url(#soft)"/><rect x="988" y="180" width="6" height="92" rx="3" ry="3" fill="#4493f8" stroke="#283341" stroke-width="1"/><text x="1010" y="208" font-size="16" fill="#e6edf3" font-family="'Segoe UI', system-ui, -apple-system, Helvetica, Arial, sans-serif" font-weight="700" text-anchor="start">LLM provider</text><line x1="1010" y1="224" x2="1212" y2="224" stroke="#222b38" stroke-width="1"/><text x="1010" y="246" font-size="12.5" fill="#e6edf3" font-family="'SF Mono','JetBrains Mono','Fira Code',Menlo,Consolas,'Liberation Mono',monospace" font-weight="600" text-anchor="start">Anthropic · OpenAI-shaped</text><text x="1010" y="268" font-size="11.5" fill="#9aa7b8" font-family="'Segoe UI', system-ui, -apple-system, Helvetica, Arial, sans-serif" font-weight="500" text-anchor="start">incl. Ollama / vLLM</text><rect x="988" y="302" width="238" height="130" rx="12" ry="12" fill="#1b2331" stroke="#222b38" stroke-width="1" filter="url(#soft)"/><rect x="988" y="302" width="6" height="130" rx="3" ry="3" fill="#2dd4bf" stroke="#283341" stroke-width="1"/><text x="1010" y="332" font-size="15" fill="#e6edf3" font-family="'Segoe UI', system-ui, -apple-system, Helvetica, Arial, sans-serif" font-weight="700" text-anchor="start">tokenfuse-cloud</text><line x1="1010" y1="346" x2="1212" y2="346" stroke="#222b38" stroke-width="1"/><circle cx="1013" cy="368" r="2.6" fill="#2dd4bf"/><text x="1026" y="372" font-size="12.5" fill="#9aa7b8" font-family="'Segoe UI', system-ui, -apple-system, Helvetica, Arial, sans-serif" font-weight="500" text-anchor="start">Rust control plane (axum)</text><circle cx="1013" cy="393" r="2.6" fill="#2dd4bf"/><text x="1026" y="397" font-size="12.5" fill="#9aa7b8" font-family="'Segoe UI', system-ui, -apple-system, Helvetica, Arial, sans-serif" font-weight="500" text-anchor="start">Next.js dashboard</text><circle cx="1013" cy="418" r="2.6" fill="#2dd4bf"/><text x="1026" y="422" font-size="12.5" fill="#9aa7b8" font-family="'Segoe UI', system-ui, -apple-system, Helvetica, Arial, sans-serif" font-weight="500" text-anchor="start">fleet kill-switch, incidents, replay</text><rect x="988" y="462" width="238" height="108" rx="12" ry="12" fill="#1b2331" stroke="#222b38" stroke-width="1" filter="url(#soft)"/><rect x="988" y="462" width="6" height="108" rx="3" ry="3" fill="#e3b341" stroke="#283341" stroke-width="1"/><text x="1010" y="490" font-size="16" fill="#e6edf3" font-family="'Segoe UI', system-ui, -apple-system, Helvetica, Arial, sans-serif" font-weight="700" text-anchor="start">radar (eBPF)</text><line x1="1010" y1="506" x2="1212" y2="506" stroke="#222b38" stroke-width="1"/><text x="1010" y="528" font-size="12.5" fill="#e6edf3" font-family="'SF Mono','JetBrains Mono','Fira Code',Menlo,Consolas,'Liberation Mono',monospace" font-weight="600" text-anchor="start">Linux, zero app changes</text><text x="1010" y="550" font-size="11.5" fill="#9aa7b8" font-family="'Segoe UI', system-ui, -apple-system, Helvetica, Arial, sans-serif" font-weight="500" text-anchor="start">finds shadow agents on a host</text><line x1="214" y1="250" x2="261" y2="226" stroke="#2dd4bf" stroke-width="1.8" opacity="0.7"/><path d="M 261 221 L 270 226 L 261 231 Z" fill="#2dd4bf" opacity="0.7"/><line x1="214" y1="370" x2="261" y2="226" stroke="#2dd4bf" stroke-width="1.8" opacity="0.7"/><path d="M 261 221 L 270 226 L 261 231 Z" fill="#2dd4bf" opacity="0.7"/><line x1="214" y1="490" x2="261" y2="226" stroke="#2dd4bf" stroke-width="1.8" opacity="0.7"/><path d="M 261 221 L 270 226 L 261 231 Z" fill="#2dd4bf" opacity="0.7"/><path d="M 618 210 L 640 210 L 640 260 L 674 260" fill="none" stroke="#2dd4bf" stroke-width="1.8" opacity="0.85"/><g transform="translate(674,260) rotate(0)"><path d="M -9 -5 L 0 0 L -9 5 Z" fill="#2dd4bf" opacity="0.85"/></g><path d="M 618 245 L 654 245 L 654 470 L 674 470" fill="none" stroke="#3fb950" stroke-width="1.8" opacity="0.7" stroke-dasharray="5,4"/><g transform="translate(674,470) rotate(0)"><path d="M -9 -5 L 0 0 L -9 5 Z" fill="#3fb950" opacity="0.7"/></g><text x="654" y="400" font-size="10" fill="#3fb950" font-family="'SF Mono','JetBrains Mono','Fira Code',Menlo,Consolas,'Liberation Mono',monospace" font-weight="400" text-anchor="middle">HA mode</text><path d="M 444 180 L 444 112 L 1107 112 L 1107 180" fill="none" stroke="#3fb950" stroke-width="1.8" opacity="0.85"/><g transform="translate(1107,180) rotate(90)"><path d="M -9 -5 L 0 0 L -9 5 Z" fill="#3fb950" opacity="0.85"/></g><text x="1107" y="172" font-size="10.5" fill="#3fb950" font-family="'SF Mono','JetBrains Mono','Fira Code',Menlo,Consolas,'Liberation Mono',monospace" font-weight="400" text-anchor="middle">forward: gates pass</text><line x1="618" y1="384" x2="979" y2="384" stroke="#2dd4bf" stroke-width="1.8" opacity="0.6"/><path d="M 979 379 L 988 384 L 979 389 Z" fill="#2dd4bf" opacity="0.6"/><text x="803" y="376" font-size="10.5" fill="#2dd4bf" font-family="'SF Mono','JetBrains Mono','Fira Code',Menlo,Consolas,'Liberation Mono',monospace" font-weight="400" text-anchor="middle">CallRecords</text><path d="M 988 516 L 850 516 L 850 656 L 270 656 L 270 494" fill="none" stroke="#e3b341" stroke-width="1.8" opacity="0.6" stroke-dasharray="5,4"/><g transform="translate(270,494) rotate(-90)"><path d="M -9 -5 L 0 0 L -9 5 Z" fill="#e3b341" opacity="0.6"/></g><text x="600" y="672" font-size="10.5" fill="#e3b341" font-family="'SF Mono','JetBrains Mono','Fira Code',Menlo,Consolas,'Liberation Mono',monospace" font-weight="400" text-anchor="middle">shadow-agent LLM traffic → capability packs</text></svg>