<svg xmlns="http://www.w3.org/2000/svg" width="1280" height="720" viewBox="0 0 1280 720" font-family="'Segoe UI', system-ui, -apple-system, Helvetica, Arial, sans-serif"><defs><linearGradient id="bg" x1="0" y1="0" x2="0" y2="1"><stop offset="0" stop-color="#0a0e16"/><stop offset="1" stop-color="#0d1117"/></linearGradient><linearGradient id="accent" x1="0" y1="0" x2="1" y2="0"><stop offset="0" stop-color="#2dd4bf"/><stop offset="0.5" stop-color="#4493f8"/><stop offset="1" stop-color="#2dd4bf"/></linearGradient><pattern id="grid" width="32" height="32" patternUnits="userSpaceOnUse"><path d="M 32 0 L 0 0 0 32" fill="none" stroke="#161d27" stroke-width="1"/></pattern><filter id="soft" x="-20%" y="-20%" width="140%" height="140%"><feDropShadow dx="0" dy="4" stdDeviation="8" flood-color="#000000" flood-opacity="0.45"/></filter><filter id="glow" x="-60%" y="-60%" width="220%" height="220%"><feDropShadow dx="0" dy="0" stdDeviation="6" flood-color="#2dd4bf" flood-opacity="0.5"/></filter></defs><rect x="0" y="0" width="1280" height="720" fill="url(#bg)"/><rect x="0" y="0" width="1280" height="720" fill="url(#grid)" opacity="0.5"/><rect x="0" y="0" width="1280" height="4" fill="url(#accent)"/><text x="1252" y="698" font-size="12.5" fill="#69788b" font-family="'SF Mono','JetBrains Mono','Fira Code',Menlo,Consolas,'Liberation Mono',monospace" font-weight="400" text-anchor="end">github.com/TAIPANBOX/tokenfuse</text><text x="40" y="56" font-size="28" fill="#e6edf3" font-family="'Segoe UI', system-ui, -apple-system, Helvetica, Arial, sans-serif" font-weight="700" text-anchor="start">Enforcement path</text><text x="40" y="84" font-size="15" fill="#9aa7b8" font-family="'Segoe UI', system-ui, -apple-system, Helvetica, Arial, sans-serif" font-weight="400" text-anchor="start">Every call is priced and checked before it leaves the proxy: enforcement, not observability.</text><line x1="40" y1="100" x2="1240" y2="100" stroke="#222b38" stroke-width="1"/><text x="42" y="138" font-size="12" fill="#4493f8" font-family="'SF Mono','JetBrains Mono','Fira Code',Menlo,Consolas,'Liberation Mono',monospace" font-weight="700" text-anchor="start" letter-spacing="1.5">01 · AGENT</text><rect x="40" y="150" width="190" height="520" rx="14" ry="14" fill="#141a23" stroke="#283341" stroke-width="1" filter="url(#soft)"/><text x="256" y="138" font-size="12" fill="#2dd4bf" font-family="'SF Mono','JetBrains Mono','Fira Code',Menlo,Consolas,'Liberation Mono',monospace" font-weight="700" text-anchor="start" letter-spacing="1.5">02 · TOKENFUSE PROXY · IN-LINE CHECKS</text><rect x="254" y="150" width="460" height="520" rx="14" ry="14" fill="#141a23" stroke="#283341" stroke-width="1" filter="url(#soft)"/><text x="740" y="138" font-size="12" fill="#4493f8" font-family="'SF Mono','JetBrains Mono','Fira Code',Menlo,Consolas,'Liberation Mono',monospace" font-weight="700" text-anchor="start" letter-spacing="1.5">03 · POLICY (WARDRYX PDP)</text><rect x="738" y="150" width="220" height="520" rx="14" ry="14" fill="#141a23" stroke="#283341" stroke-width="1" filter="url(#soft)"/><text x="984" y="138" font-size="12" fill="#2dd4bf" font-family="'SF Mono','JetBrains Mono','Fira Code',Menlo,Consolas,'Liberation Mono',monospace" font-weight="700" text-anchor="start" letter-spacing="1.5">04 · UPSTREAM + CLOUD</text><rect x="982" y="150" width="258" height="520" rx="14" ry="14" fill="#141a23" stroke="#283341" stroke-width="1" filter="url(#soft)"/><rect x="56" y="180" width="158" height="100" rx="12" ry="12" fill="#1b2331" stroke="#222b38" stroke-width="1" filter="url(#soft)"/><rect x="56" y="180" width="6" height="100" rx="3" ry="3" fill="#4493f8" stroke="#283341" stroke-width="1"/><text x="78" y="208" font-size="16" fill="#e6edf3" font-family="'Segoe UI', system-ui, -apple-system, Helvetica, Arial, sans-serif" font-weight="700" text-anchor="start">AI agent</text><line x1="78" y1="224" x2="200" y2="224" stroke="#222b38" stroke-width="1"/><text x="78" y="246" font-size="12.5" fill="#e6edf3" font-family="'SF Mono','JetBrains Mono','Fira Code',Menlo,Consolas,'Liberation Mono',monospace" font-weight="600" text-anchor="start">any framework</text><text x="78" y="268" font-size="11.5" fill="#9aa7b8" font-family="'Segoe UI', system-ui, -apple-system, Helvetica, Arial, sans-serif" font-weight="500" text-anchor="start">LLM call, base-URL swap only</text><rect x="56" y="540" width="158" height="100" rx="12" ry="12" fill="#1b2331" stroke="#222b38" stroke-width="1" filter="url(#soft)"/><rect x="56" y="540" width="6" height="100" rx="3" ry="3" fill="#4493f8" stroke="#283341" stroke-width="1"/><text x="78" y="568" font-size="16" fill="#e6edf3" font-family="'Segoe UI', system-ui, -apple-system, Helvetica, Arial, sans-serif" font-weight="700" text-anchor="start">Response</text><line x1="78" y1="584" x2="200" y2="584" stroke="#222b38" stroke-width="1"/><text x="78" y="606" font-size="12.5" fill="#e6edf3" font-family="'SF Mono','JetBrains Mono','Fira Code',Menlo,Consolas,'Liberation Mono',monospace" font-weight="600" text-anchor="start">streamed straight through</text><text x="78" y="628" font-size="11.5" fill="#9aa7b8" font-family="'Segoe UI', system-ui, -apple-system, Helvetica, Arial, sans-serif" font-weight="500" text-anchor="start">...or a clean 402 / 403 stop</text><rect x="374" y="168" width="220" height="74" rx="14" ry="14" fill="#1a212c" stroke="#2dd4bf" stroke-width="1.6" filter="url(#glow)"/><text x="484.0" y="198" font-size="18" fill="#2dd4bf" font-family="'SF Mono','JetBrains Mono','Fira Code',Menlo,Consolas,'Liberation Mono',monospace" font-weight="700" text-anchor="middle">TokenFuse</text><text x="484.0" y="218" font-size="12.5" fill="#e6edf3" font-family="'Segoe UI', system-ui, -apple-system, Helvetica, Arial, sans-serif" font-weight="600" text-anchor="middle">proxy: spend + enforcement</text><text x="484.0" y="236" font-size="10.5" fill="#69788b" font-family="'SF Mono','JetBrains Mono','Fira Code',Menlo,Consolas,'Liberation Mono',monospace" font-weight="400" text-anchor="middle">single Rust binary, in-line</text><rect x="270" y="268" width="428" height="112" rx="12" ry="12" fill="#1b2331" stroke="#222b38" stroke-width="1" filter="url(#soft)"/><rect x="270" y="268" width="6" height="112" rx="3" ry="3" fill="#e3b341" stroke="#283341" stroke-width="1"/><text x="292" y="296" font-size="16" fill="#e6edf3" font-family="'Segoe UI', system-ui, -apple-system, Helvetica, Arial, sans-serif" font-weight="700" text-anchor="start">Budget check</text><text x="684" y="296" font-size="10" fill="#e3b341" font-family="'SF Mono','JetBrains Mono','Fira Code',Menlo,Consolas,'Liberation Mono',monospace" font-weight="700" text-anchor="end" letter-spacing="1.5">GATE</text><line x1="292" y1="312" x2="684" y2="312" stroke="#222b38" stroke-width="1"/><text x="292" y="334" font-size="12.5" fill="#e6edf3" font-family="'SF Mono','JetBrains Mono','Fira Code',Menlo,Consolas,'Liberation Mono',monospace" font-weight="600" text-anchor="start">estimate cost vs. run budget (hierarchical)</text><text x="292" y="356" font-size="11.5" fill="#ff6b63" font-family="'Segoe UI', system-ui, -apple-system, Helvetica, Arial, sans-serif" font-weight="500" text-anchor="start">over budget → HTTP 402 budget_exceeded</text><rect x="270" y="400" width="428" height="112" rx="12" ry="12" fill="#1b2331" stroke="#222b38" stroke-width="1" filter="url(#soft)"/><rect x="270" y="400" width="6" height="112" rx="3" ry="3" fill="#e3b341" stroke="#283341" stroke-width="1"/><text x="292" y="428" font-size="16" fill="#e6edf3" font-family="'Segoe UI', system-ui, -apple-system, Helvetica, Arial, sans-serif" font-weight="700" text-anchor="start">Loop detector</text><text x="684" y="428" font-size="10" fill="#e3b341" font-family="'SF Mono','JetBrains Mono','Fira Code',Menlo,Consolas,'Liberation Mono',monospace" font-weight="700" text-anchor="end" letter-spacing="1.5">GATE</text><line x1="292" y1="444" x2="684" y2="444" stroke="#222b38" stroke-width="1"/><text x="292" y="466" font-size="12.5" fill="#e6edf3" font-family="'SF Mono','JetBrains Mono','Fira Code',Menlo,Consolas,'Liberation Mono',monospace" font-weight="600" text-anchor="start">identical-call · ping-pong · context growth</text><text x="292" y="488" font-size="11.5" fill="#ff6b63" font-family="'Segoe UI', system-ui, -apple-system, Helvetica, Arial, sans-serif" font-weight="500" text-anchor="start">loop found → HTTP 402 loop_detected</text><rect x="270" y="532" width="428" height="112" rx="12" ry="12" fill="#1b2331" stroke="#222b38" stroke-width="1" filter="url(#soft)"/><rect x="270" y="532" width="6" height="112" rx="3" ry="3" fill="#e3b341" stroke="#283341" stroke-width="1"/><text x="292" y="560" font-size="16" fill="#e6edf3" font-family="'Segoe UI', system-ui, -apple-system, Helvetica, Arial, sans-serif" font-weight="700" text-anchor="start">Agent firewall (taint / DLP)</text><text x="684" y="560" font-size="10" fill="#e3b341" font-family="'SF Mono','JetBrains Mono','Fira Code',Menlo,Consolas,'Liberation Mono',monospace" font-weight="700" text-anchor="end" letter-spacing="1.5">GATE</text><line x1="292" y1="576" x2="684" y2="576" stroke="#222b38" stroke-width="1"/><text x="292" y="598" font-size="12.5" fill="#e6edf3" font-family="'SF Mono','JetBrains Mono','Fira Code',Menlo,Consolas,'Liberation Mono',monospace" font-weight="600" text-anchor="start">taint tracking + secret redaction</text><text x="292" y="620" font-size="11.5" fill="#ff6b63" font-family="'Segoe UI', system-ui, -apple-system, Helvetica, Arial, sans-serif" font-weight="500" text-anchor="start">blocked → HTTP 403 taint_dlp_blocked</text><line x1="214" y1="220" x2="365" y2="205" stroke="#2dd4bf" stroke-width="1.8" opacity="1.0"/><path d="M 365 200 L 374 205 L 365 210 Z" fill="#2dd4bf" opacity="1.0"/><text x="294.0" y="212" font-size="11" fill="#2dd4bf" font-family="'SF Mono','JetBrains Mono','Fira Code',Menlo,Consolas,'Liberation Mono',monospace" font-weight="600" text-anchor="middle" opacity="1.0">LLM call</text><line x1="484.0" y1="242" x2="484.0" y2="259" stroke="#2dd4bf" stroke-width="1.8" opacity="1.0"/><path d="M 479.0 259 L 484.0 268 L 489.0 259 Z" fill="#2dd4bf" opacity="1.0"/><line x1="658" y1="380" x2="658" y2="391" stroke="#3fb950" stroke-width="1.8" opacity="0.8"/><path d="M 653 391 L 658 400 L 663 391 Z" fill="#3fb950" opacity="0.8"/><line x1="658" y1="512" x2="658" y2="523" stroke="#3fb950" stroke-width="1.8" opacity="0.8"/><path d="M 653 523 L 658 532 L 663 523 Z" fill="#3fb950" opacity="0.8"/><rect x="758" y="246" width="180" height="110" rx="12" ry="12" fill="#1b2331" stroke="#222b38" stroke-width="1" filter="url(#soft)"/><rect x="758" y="246" width="6" height="110" rx="3" ry="3" fill="#4493f8" stroke="#283341" stroke-width="1"/><text x="780" y="274" font-size="16" fill="#e6edf3" font-family="'Segoe UI', system-ui, -apple-system, Helvetica, Arial, sans-serif" font-weight="700" text-anchor="start">Wardryx PDP</text><line x1="780" y1="290" x2="924" y2="290" stroke="#222b38" stroke-width="1"/><text x="780" y="312" font-size="12.5" fill="#e6edf3" font-family="'SF Mono','JetBrains Mono','Fira Code',Menlo,Consolas,'Liberation Mono',monospace" font-weight="600" text-anchor="start">external policy engine</text><text x="780" y="334" font-size="11.5" fill="#9aa7b8" font-family="'Segoe UI', system-ui, -apple-system, Helvetica, Arial, sans-serif" font-weight="500" text-anchor="start">allow · deny · hold</text><text x="848" y="388" font-size="10.5" fill="#69788b" font-family="'SF Mono','JetBrains Mono','Fira Code',Menlo,Consolas,'Liberation Mono',monospace" font-weight="400" text-anchor="middle">response</text><rect x="765.0" y="395.0" width="62" height="30" rx="15.0" ry="15.0" fill="#1a212c" stroke="#3fb950" stroke-width="1.6"/><text x="796" y="414" font-size="11.5" fill="#3fb950" font-family="'SF Mono','JetBrains Mono','Fira Code',Menlo,Consolas,'Liberation Mono',monospace" font-weight="700" text-anchor="middle" letter-spacing="0.5">ALLOW</text><rect x="820.0" y="395.0" width="56" height="30" rx="15.0" ry="15.0" fill="#1a212c" stroke="#e3b341" stroke-width="1.6"/><text x="848" y="414" font-size="11.5" fill="#e3b341" font-family="'SF Mono','JetBrains Mono','Fira Code',Menlo,Consolas,'Liberation Mono',monospace" font-weight="700" text-anchor="middle" letter-spacing="0.5">HOLD</text><rect x="869.0" y="395.0" width="58" height="30" rx="15.0" ry="15.0" fill="#1a212c" stroke="#ff6b63" stroke-width="1.6"/><text x="898" y="414" font-size="11.5" fill="#ff6b63" font-family="'SF Mono','JetBrains Mono','Fira Code',Menlo,Consolas,'Liberation Mono',monospace" font-weight="700" text-anchor="middle" letter-spacing="0.5">DENY</text><text x="848" y="458" font-size="10.5" fill="#ff6b63" font-family="'SF Mono','JetBrains Mono','Fira Code',Menlo,Consolas,'Liberation Mono',monospace" font-weight="400" text-anchor="middle">hold/deny → HTTP 403</text><line x1="594" y1="205" x2="749" y2="260" stroke="#2dd4bf" stroke-width="1.8" opacity="1.0"/><path d="M 749 255 L 758 260 L 749 265 Z" fill="#2dd4bf" opacity="1.0"/><text x="676.0" y="197" font-size="11" fill="#2dd4bf" font-family="'SF Mono','JetBrains Mono','Fira Code',Menlo,Consolas,'Liberation Mono',monospace" font-weight="600" text-anchor="middle" opacity="1.0">POST /v1/decide (PEP)</text><path d="M 698 588 L 965 588 L 965 240 L 998 240" fill="none" stroke="#3fb950" stroke-width="1.8" opacity="0.85"/><g transform="translate(998,240) rotate(0)"><path d="M -9 -5 L 0 0 L -9 5 Z" fill="#3fb950" opacity="0.85"/></g><text x="760" y="606" font-size="11" fill="#3fb950" font-family="'SF Mono','JetBrains Mono','Fira Code',Menlo,Consolas,'Liberation Mono',monospace" font-weight="400" text-anchor="start">gates pass</text><path d="M 938 375 L 965 375 L 965 264 L 998 264" fill="none" stroke="#3fb950" stroke-width="1.8" opacity="0.85"/><g transform="translate(998,264) rotate(0)"><path d="M -9 -5 L 0 0 L -9 5 Z" fill="#3fb950" opacity="0.85"/></g><text x="950" y="368" font-size="10.5" fill="#3fb950" font-family="'SF Mono','JetBrains Mono','Fira Code',Menlo,Consolas,'Liberation Mono',monospace" font-weight="400" text-anchor="middle">on allow</text><rect x="998" y="200" width="226" height="100" rx="12" ry="12" fill="#1b2331" stroke="#222b38" stroke-width="1" filter="url(#soft)"/><rect x="998" y="200" width="6" height="100" rx="3" ry="3" fill="#4493f8" stroke="#283341" stroke-width="1"/><text x="1020" y="228" font-size="16" fill="#e6edf3" font-family="'Segoe UI', system-ui, -apple-system, Helvetica, Arial, sans-serif" font-weight="700" text-anchor="start">LLM provider</text><line x1="1020" y1="244" x2="1210" y2="244" stroke="#222b38" stroke-width="1"/><text x="1020" y="266" font-size="12.5" fill="#e6edf3" font-family="'SF Mono','JetBrains Mono','Fira Code',Menlo,Consolas,'Liberation Mono',monospace" font-weight="600" text-anchor="start">Anthropic · OpenAI-shaped</text><text x="1020" y="288" font-size="11.5" fill="#9aa7b8" font-family="'Segoe UI', system-ui, -apple-system, Helvetica, Arial, sans-serif" font-weight="500" text-anchor="start">incl. Ollama / vLLM</text><rect x="998" y="340" width="226" height="110" rx="12" ry="12" fill="#1b2331" stroke="#222b38" stroke-width="1" filter="url(#soft)"/><rect x="998" y="340" width="6" height="110" rx="3" ry="3" fill="#2dd4bf" stroke="#283341" stroke-width="1"/><text x="1020" y="368" font-size="16" fill="#e6edf3" font-family="'Segoe UI', system-ui, -apple-system, Helvetica, Arial, sans-serif" font-weight="700" text-anchor="start">TokenFuse Cloud</text><line x1="1020" y1="384" x2="1210" y2="384" stroke="#222b38" stroke-width="1"/><text x="1020" y="406" font-size="12.5" fill="#e6edf3" font-family="'SF Mono','JetBrains Mono','Fira Code',Menlo,Consolas,'Liberation Mono',monospace" font-weight="600" text-anchor="start">control plane</text><text x="1020" y="428" font-size="11.5" fill="#9aa7b8" font-family="'Segoe UI', system-ui, -apple-system, Helvetica, Arial, sans-serif" font-weight="500" text-anchor="start">CallRecords · incidents</text><rect x="998" y="490" width="226" height="100" rx="12" ry="12" fill="#1b2331" stroke="#222b38" stroke-width="1" filter="url(#soft)"/><rect x="998" y="490" width="6" height="100" rx="3" ry="3" fill="#69788b" stroke="#283341" stroke-width="1"/><text x="1020" y="518" font-size="16" fill="#e6edf3" font-family="'Segoe UI', system-ui, -apple-system, Helvetica, Arial, sans-serif" font-weight="700" text-anchor="start">Fail-open</text><line x1="1020" y1="534" x2="1210" y2="534" stroke="#222b38" stroke-width="1"/><text x="1020" y="556" font-size="12.5" fill="#e6edf3" font-family="'SF Mono','JetBrains Mono','Fira Code',Menlo,Consolas,'Liberation Mono',monospace" font-weight="600" text-anchor="start">on gateway trouble</text><text x="1020" y="578" font-size="11.5" fill="#9aa7b8" font-family="'Segoe UI', system-ui, -apple-system, Helvetica, Arial, sans-serif" font-weight="500" text-anchor="start">traffic keeps flowing</text><path d="M 658 644 C 658 630, 900 630, 998 395" fill="none" stroke="#2dd4bf" stroke-width="1.8" opacity="0.55" stroke-dasharray="5,4"/><g transform="translate(998,395) rotate(-60)"><path d="M -9 -5 L 0 0 L -9 5 Z" fill="#2dd4bf" opacity="0.55"/></g><text x="770" y="630" font-size="11" fill="#2dd4bf" font-family="'SF Mono','JetBrains Mono','Fira Code',Menlo,Consolas,'Liberation Mono',monospace" font-weight="400" text-anchor="start">CallRecords</text></svg>